<svg width="23.706mm" height="48.95mm" version="1.1" viewBox="0 0 23.706 48.95" xmlns="http://www.w3.org/2000/svg">
 <g transform="translate(-88.032 -108.81)">
  <text transform="scale(.26458)" font-family="Buda" font-size="40px" style="line-height:1.25;shape-inside:url(#rect2036);white-space:pre" xml:space="preserve"/>
  <g stroke-width=".65678" aria-label="張雄">
   <path d="m105.38 127.69.30786 1.8472-6.9783 1.642q-.20524.71835-.41049.30786l-.61573-2.3603 1.5393-.20524v-7.4914h-1.8472v-1.9498h1.8472v-10.673h10.467v1.9498h-8.415v1.5393h7.3888v1.9498h-7.3888v1.642h7.3888v1.9498h-7.3888v1.6419h9.9543v1.9498h-6.6704q.30786 1.4367 1.2314 2.7708l2.7708-2.3603 1.5393 1.5393q.10262.5131-.51311.30786l-2.6682 1.8472q1.9498 2.0524 4.8232 3.3865l-1.2315 2.2577q-6.5678-3.6944-7.7992-9.749h-1.4367v7.1835zm-14.983 3.2839v-1.9498h2.0524q1.1288 0 1.2315-1.0262l.51311-5.6442h-3.5918l-.10262.92359-1.9498-.41048 1.0262-8.5176h4.5153v-3.5918h-5.5416v-1.9498h7.594v8.2097h-2.0524v-.71835h-2.6682l-.51311 4.1049h5.5416l-.82097 8.5176q-.20524 2.0524-2.4629 2.0524z"/>
   <path d="m97.371 144.01q3.4891-3.2839 4.1049-9.6464l2.155.41049q.41049.41049-.30786.51311-.30787 1.7446-.92359 3.8996h2.5655l.9236-4.4127 2.0524.41049q.41048.41048-.30787.5131l-.92359 3.4891h4.2075v1.642h-4.0022v3.2839h3.3865v1.642h-3.3865v3.3865h3.3865v1.6419h-3.3865v3.797h4.618v1.6419h-9.3386v1.5393h-1.7446v-14.47q-.71835 1.4367-2.0524 2.5655zm-9.3386 10.98q3.1813-5.1311 3.6944-13.854h-3.3865v-1.9498h3.4891l.20524-4.4127 2.3603.41049q.41049.41048-.30786.5131l-.20524 3.4891h5.1311v1.9498h-5.2337q-.82097 10.467-4.1049 15.291zm6.5678-1.4367 2.3603-.71835-.82097-2.8734 1.7446-.51311q1.1288 3.0786 1.6419 6.5678l-1.8472.61573-.41049-2.1551-4.9258 1.642q-.10262.71835-.51311.30786l-.51311-2.155 1.4367-.30786 2.0524-10.365 1.9498.61573q.41049.41048-.30786.5131zm7.594-2.7708v3.797h2.976v-3.797zm2.976-5.0284h-2.976v3.3865h2.976zm0-1.642v-3.2839h-2.976v3.2839z"/>
  </g>
 </g>
 <g display="none" fill="current" stroke="current">
  <path d="m.52982-.031166h7.5734v8.2278h-2.0881v-.71682h-2.6491l-.46749 4.1763h5.5476l-.84148 8.446-.15583.71682-.24933.46749-.40516.43632-.49866.2805-.65449.15583h-3.3036v-1.9635h2.4621l.31166-.06233.34283-.2805.15583-.31166.56099-6.015h-3.6153l-.093498.93498-1.9635-.40516 1.0908-8.5083h4.4567v-3.6153h-5.5476z" stroke-width=".265"/>
  <g stroke-width=".26458px">
   <path d="m11.175.02988h10.488v1.8825h-8.4263v1.5837h7.4104v1.9422h-7.4104v1.6434h7.4104v1.9123h-7.3805v1.7032h9.9203v1.9123h-6.6932l.38845 1.2251.56773 1.1653.2988.44821 2.7789-2.3904 1.494 1.5239.02988.23904-.20916.1494-.2988-.05976-2.6295 1.7928.95618 1.0159 1.0757.80677 1.5538 1.0159 1.1952.59761-1.255 2.2709-1.6135-1.0458-2.0319-1.5837-.95617-.95617-1.1355-1.4641-.71713-1.1056-.92629-2.1215-.44821-1.5239h-1.4044v7.261l4.1235-.95618.35857 1.7928-7.0518 1.7032-.1494.35857-.26892-.23904-.59761-2.1813 1.5239-.26892v-7.4701h-1.8526v-1.9422h1.8825z"/>
   <path d="m.2988 30.388h3.496l.11952-2.4203.089641-1.5538.02988-.44821 2.3307.41833.11952.20916-.089641.17928-.2988.08964-.26892 3.5558h5.1394v1.9124h-5.2291l-.059761 1.1653-.26892 2.4502-.35857 2.0618-.80677 3.7649-.53785 1.7331-.95617 2.2112-1.1056 1.9422-1.6733-1.494.77689-1.255 1.0458-2.3904.53785-1.7032.50797-1.8526.38845-2.241.26892-2.0916.20916-2.3606h-3.4064z"/>
   <path d="m6.7829 34.781 1.8825.59761.1494.20916-.029881.20916-.35857.08964-1.8825 8.9044 2.4203-.77689-.83665-2.8386 1.7032-.53785.56773 1.6733.50797 1.9124.38845 1.7629.17928 1.1952-1.8526.65737-.17928-1.255-.20916-.9263-4.9303 1.6434-.059761.26892-.1494.23904-.2988-.1494-.47809-2.1813 1.4044-.32869.2988-1.3147.41833-2.3606z"/>
  </g>
 </g>
</svg>
